<svg xmlns="http://www.w3.org/2000/svg" viewBox="0 0 520 112" role="img" aria-labelledby="title">
  <title id="title">치즈모아 CheeseMoa</title>
  <g transform="translate(4 4) scale(1.625)">
    <rect width="64" height="64" rx="18" fill="#173B57"/>
    <path d="M11 27.5 40.5 12a5 5 0 0 1 5.4.7l6.4 5.1A4.5 4.5 0 0 1 54 21.3V48a5 5 0 0 1-5 5H15a5 5 0 0 1-5-5V29.3c0-.7.4-1.4 1-1.8Z" fill="#FFC83D"/>
    <path d="M11 28h43" stroke="#173B57" stroke-width="3" stroke-linecap="round" opacity=".22"/>
    <rect x="16" y="33" width="13" height="10" rx="3" fill="#FFF8E5"/>
    <rect x="34" y="33" width="14" height="10" rx="3" fill="#FF6B4A"/>
    <path d="m40 35.8 4.7 2.2-4.7 2.2Z" fill="#FFF8E5"/>
    <circle cx="38" cy="20" r="3.4" fill="#FFF8E5" opacity=".85"/>
    <circle cx="18" cy="47.5" r="2.2" fill="#173B57" opacity=".18"/>
  </g>
  <text x="130" y="67" fill="#173B57" font-family="Arial Black, Arial, sans-serif" font-size="50" font-weight="900" letter-spacing="-2">CheeseMoa</text>
  <text x="134" y="93" fill="#617282" font-family="Apple SD Gothic Neo, Noto Sans KR, sans-serif" font-size="17" font-weight="700" letter-spacing="1.5">치즈모아 · 로컬 멀티뷰</text>
</svg>
